HIERARCHY
ROOT Hips
{
	OFFSET 0.00000 0.00000 0.00000
	CHANNELS 6 Xposition Yposition Zposition Zrotation Yrotation Xrotation 
	JOINT LHipJoint
	{
		OFFSET 0 0 0
		CHANNELS 3 Zrotation Yrotation Xrotation
		JOINT LeftUpLeg
		{
			OFFSET 1.92384 -1.64427 0.83032
			CHANNELS 3 Zrotation Yrotation Xrotation
			JOINT LeftLeg
			{
				OFFSET 2.52872 -6.94761 0.00000
				CHANNELS 3 Zrotation Yrotation Xrotation
				JOINT LeftFoot
				{
					OFFSET 2.51827 -6.91890 0.00000
					CHANNELS 3 Zrotation Yrotation Xrotation
					JOINT LeftToeBase
					{
						OFFSET 0.22757 -0.62524 2.06528
						CHANNELS 3 Zrotation Yrotation Xrotation
						End Site
						{
							OFFSET 0.00000 -0.00000 1.08218
						}
					}
				}
			}
		}
	}
	JOINT RHipJoint
	{
		OFFSET 0 0 0
		CHANNELS 3 Zrotation Yrotation Xrotation
		JOINT RightUpLeg
		{
			OFFSET -2.09517 -1.64427 0.83032
			CHANNELS 3 Zrotation Yrotation Xrotation
			JOINT RightLeg
			{
				OFFSET -2.55173 -7.01082 0.00000
				CHANNELS 3 Zrotation Yrotation Xrotation
				JOINT RightFoot
				{
					OFFSET -2.50265 -6.87598 0.00000
					CHANNELS 3 Zrotation Yrotation Xrotation
					JOINT RightToeBase
					{
						OFFSET -0.22612 -0.62126 1.98677
						CHANNELS 3 Zrotation Yrotation Xrotation
						End Site
						{
							OFFSET -0.00000 -0.00000 1.04433
						}
					}
				}
			}
		}
	}
	JOINT LowerBack
	{
		OFFSET 0 0 0
		CHANNELS 3 Zrotation Yrotation Xrotation
		JOINT Spine
		{
			OFFSET 0.02839 1.68926 0.31690
			CHANNELS 3 Zrotation Yrotation Xrotation
			JOINT Spine1
			{
				OFFSET -0.01522 1.70183 0.21192
				CHANNELS 3 Zrotation Yrotation Xrotation
				JOINT Neck
				{
					OFFSET 0 0 0
					CHANNELS 3 Zrotation Yrotation Xrotation
					JOINT Neck1
					{
						OFFSET -0.04523 1.88988 0.10630
						CHANNELS 3 Zrotation Yrotation Xrotation
						JOINT Head
						{
							OFFSET 0.05172 1.78070 -0.56858
							CHANNELS 3 Zrotation Yrotation Xrotation
							End Site
							{
								OFFSET 0.01532 1.90392 -0.20434
							}
						}
					}
				}
				JOINT LeftShoulder
				{
					OFFSET 0 0 0
					CHANNELS 3 Zrotation Yrotation Xrotation
					JOINT LeftArm
					{
						OFFSET 3.25522 0.75486 0.22086
						CHANNELS 3 Zrotation Yrotation Xrotation
						JOINT LeftForeArm
						{
							OFFSET 4.85645 -0.00000 0.00000
							CHANNELS 3 Zrotation Yrotation Xrotation
							JOINT LeftHand
							{
								OFFSET 2.79874 -0.00000 0.00000
								CHANNELS 3 Zrotation Yrotation Xrotation
								JOINT LeftFingerBase
								{
									OFFSET 0 0 0
									CHANNELS 3 Zrotation Yrotation Xrotation
									JOINT LeftHandIndex1
									{
										OFFSET 0.57340 -0.00000 0.00000
										CHANNELS 3 Zrotation Yrotation Xrotation
										End Site
										{
											OFFSET 0.46229 -0.00000 0.00000
										}
									}
								}
								JOINT LThumb
								{
									OFFSET 0 0 0
									CHANNELS 3 Zrotation Yrotation Xrotation
									End Site
									{
										OFFSET 0.46935 -0.00000 0.46935
									}
								}
							}
						}
					}
				}
				JOINT RightShoulder
				{
					OFFSET 0 0 0
					CHANNELS 3 Zrotation Yrotation Xrotation
					JOINT RightArm
					{
						OFFSET -3.29079 0.52751 0.36356
						CHANNELS 3 Zrotation Yrotation Xrotation
						JOINT RightForeArm
						{
							OFFSET -4.67018 -0.00000 0.00000
							CHANNELS 3 Zrotation Yrotation Xrotation
							JOINT RightHand
							{
								OFFSET -2.65534 -0.00000 0.00000
								CHANNELS 3 Zrotation Yrotation Xrotation
								JOINT RightFingerBase
								{
									OFFSET 0 0 0
									CHANNELS 3 Zrotation Yrotation Xrotation
									JOINT RightHandIndex1
									{
										OFFSET -0.59407 -0.00000 0.00000
										CHANNELS 3 Zrotation Yrotation Xrotation
										End Site
										{
											OFFSET -0.47895 -0.00000 0.00000
										}
									}
								}
								JOINT RThumb
								{
									OFFSET 0 0 0
									CHANNELS 3 Zrotation Yrotation Xrotation
									End Site
									{
										OFFSET -0.48627 -0.00000 0.48627
									}
								}
							}
						}
					}
				}
			}
		}
	}
}
MOTION
Frames: 5
Frame Time: .0083333
-4.2278 15.5728 20.1629 0 0 0 0 0 0 -21 0 0 0 0 0 0 0 0 0 0 0 0 0 0 21 0 0 0 0 0 0 0 0 0 0 0 0 0 0 0 0 0 0 0 0 0 0 -16 0 0 21 0 0 11 0 0 0 -8 0 0 0 0 0 0 0 0 0 0 0 0 0 0 0 0 0 0 0 0 8 0 0 0 0 0 0 0 0 0 0 0 0 0 0 0 0 0
-4.2278 15.5728 20.1629 -0.7592 5.9404 28.0437 0.0000 0.0000 0.0000 -10.7713 -10.3107 -57.9301 10.9151 17.8933 62.5055 2.5311 -3.9864 -29.1667 0.5338 -4.6817 -13.0030 0.0000 0.0000 0.0000 10.7806 13.9273 -56.2783 -11.0747 -17.9714 63.0239 -2.5391 -4.4044 -31.9084 -0.5492 4.7474 -13.1895 2.0794 0.7830 -20.5219 -0.5167 0.8076 -16.1120 -1.6105 0.2325 -6.1683 -5.0977 -3.9775 -15.6437 3.4476 -5.6241 35.0417 1.3572 -2.5981 15.0859 -0.0000 -0.0000 0.0000 -80.1054 -3.0806 26.6521 136.9910 -49.7550 -99.2924 -0.0000 -0.0000 28.1204 9.7639 15.3857 2.6141 -7.1250 0.0000 -0.0000 -16.5268 44.9185 0.0342 -0.0000 -0.0000 0.0000 77.7312 7.4249 30.3442 -133.5483 51.4602 -96.6312 0.0000 0.0000 37.5996 -7.1603 -8.4191 1.0537 7.1250 -0.0000 -0.0000 16.7890 -37.9487 3.0172
-4.2277 15.5727 20.1632 -0.7570 5.9377 28.0378 0.0000 0.0000 0.0000 -10.7698 -10.3118 -57.9053 10.9099 17.8907 62.4885 2.5291 -4.0190 -29.1482 0.5233 -4.6359 -12.8730 0.0000 0.0000 0.0000 10.7765 13.9322 -56.2691 -11.0731 -17.9707 63.0188 -2.5472 -4.3985 -31.9531 -0.5440 4.7255 -13.1272 2.0894 0.7945 -20.5175 -0.5349 0.8210 -16.1113 -1.6339 0.2374 -6.1688 -5.0816 -3.9849 -15.6540 3.4320 -5.6360 35.0803 1.3459 -2.6029 15.1062 0.0000 0.0000 0.0000 -80.1073 -3.1045 26.6693 136.9790 -49.7613 -99.2833 -0.0000 -0.0000 28.1505 9.7605 15.4003 2.6156 -7.1250 0.0000 -0.0000 -16.5347 44.9322 0.0285 0.0000 0.0000 0.0000 77.7539 7.4140 30.3303 -133.5496 51.4596 -96.6322 0.0000 0.0000 37.6105 -7.1404 -8.3752 1.0453 7.1250 -0.0000 -0.0000 16.7948 -37.9050 3.0370
-4.2278 15.5738 20.1639 -0.7574 5.9353 28.0262 0.0000 0.0000 0.0000 -10.7701 -10.3103 -57.8797 10.9024 17.8870 62.4643 2.5285 -4.0484 -29.1392 0.5241 -4.6393 -12.8827 0.0000 0.0000 0.0000 10.7782 13.9360 -56.2415 -11.0663 -17.9674 62.9966 -2.5472 -4.3978 -31.9524 -0.5371 4.6959 -13.0432 2.0243 0.8248 -20.6652 -0.5530 0.8664 -16.0498 -1.6081 0.2680 -6.0209 -5.0729 -4.0143 -15.5851 3.4312 -5.6818 35.0036 1.3366 -2.6223 15.0559 -0.0000 0.0000 0.0000 -80.1864 -3.3055 26.7559 136.8410 -49.8340 -99.1778 -0.0000 -0.0000 28.3595 9.6871 15.3939 2.5945 -7.1250 0.0000 -0.0000 -16.5981 44.9176 0.0347 -0.0000 0.0000 0.0000 77.7329 7.4318 30.1743 -133.5560 51.4566 -96.6373 0.0000 0.0000 37.6345 -7.0478 -8.3883 1.0332 7.1250 -0.0000 -0.0000 16.8745 -37.9111 3.0499
-4.2283 15.5765 20.1642 -0.7409 5.9245 28.0166 0.0000 0.0000 0.0000 -10.7977 -10.3050 -57.8465 10.8926 17.8821 62.4322 2.5260 -4.0380 -29.1263 0.5245 -4.6413 -12.8882 0.0000 0.0000 0.0000 10.7762 13.9103 -56.2227 -11.0590 -17.9638 62.9730 -2.5389 -4.3977 -31.9042 -0.5469 4.7377 -13.1619 2.0584 0.8047 -20.5435 -0.5536 0.8379 -16.0989 -1.6338 0.2482 -6.1404 -5.0794 -3.9846 -15.6170 3.4257 -5.6366 35.1144 1.3438 -2.6040 15.1135 0.0000 0.0000 0.0000 -80.1278 -3.1125 26.6920 136.9503 -49.7765 -99.2613 -0.0000 -0.0000 28.1942 9.7268 15.3714 2.6016 -7.1250 0.0000 -0.0000 -16.5553 44.9005 0.0418 0.0000 0.0000 0.0000 77.7991 7.3653 30.3197 -133.5934 51.4393 -96.6664 0.0000 0.0000 37.5115 -6.9541 -8.3957 1.0203 7.1250 -0.0000 -0.0000 16.9537 -37.9117 3.0649
